PathFileType	4	(X/Y/Z)
DataRate	CameraRate	NumFrames	NumMarkers	Units	OrigDataRate	OrigDataStartFrame	OrigNumFrames	
  120.0	  120.0	    4	     56	     mm	  120.0	      108	    431
Frame#	Time	LASI			RASI			LPSI			RPSI			RTH1			RTH2			RTH3			RLFC			RMFC			LTH1			LTH2			LTH3			LLFC			LMFC			RTB1			RTB2			RTB3			RLMAL			RMMAL			LTB1			LTB2			LTB3			LMMAL			LLMAL			RCAL			RTOE			RMT5			LCAL			LTOE			LMT5			LACR			RACR			CLAV			C7			LASH			LPSH			RASH			RPSH			RUA1			RUA2			RUA3			RLEL			RMEL			LUA1			LUA2			LUA3			LLEL			LMEL			RFAsuperior			RFAradius			RFAulna			LFAsuperior			LFAradius			LFAulna			RHJC			LHJC			
		X1	Y1	Z1	X2	Y2	Z2	X3	Y3	Z3	X4	Y4	Z4	X5	Y5	Z5	X6	Y6	Z6	X7	Y7	Z7	X8	Y8	Z8	X9	Y9	Z9	X10	Y10	Z10	X11	Y11	Z11	X12	Y12	Z12	X13	Y13	Z13	X14	Y14	Z14	X15	Y15	Z15	X16	Y16	Z16	X17	Y17	Z17	X18	Y18	Z18	X19	Y19	Z19	X20	Y20	Z20	X21	Y21	Z21	X22	Y22	Z22	X23	Y23	Z23	X24	Y24	Z24	X25	Y25	Z25	X26	Y26	Z26	X27	Y27	Z27	X28	Y28	Z28	X29	Y29	Z29	X30	Y30	Z30	X31	Y31	Z31	X32	Y32	Z32	X33	Y33	Z33	X34	Y34	Z34	X35	Y35	Z35	X36	Y36	Z36	X37	Y37	Z37	X38	Y38	Z38	X39	Y39	Z39	X40	Y40	Z40	X41	Y41	Z41	X42	Y42	Z42	X43	Y43	Z43	X44	Y44	Z44	X45	Y45	Z45	X46	Y46	Z46	X47	Y47	Z47	X48	Y48	Z48	X49	Y49	Z49	X50	Y50	Z50	X51	Y51	Z51	X52	Y52	Z52	X53	Y53	Z53	X54	Y54	Z54	X55	Y55	Z55	X56	Y56	Z56	

108	0.90000	882.46200	1031.39424	-613.26754	890.04103	1024.88800	-376.59242	723.55337	1055.54593	-541.66622	720.85957	1053.55005	-443.38725	808.82202	871.77717	-302.32559	872.29610	738.93469	-304.19506	790.43516	611.62211	-314.54082	807.04628	516.47158	-304.60834	795.12377	503.37878	-429.30241	822.42796	850.35923	-683.68481	874.65279	741.28649	-682.88839	799.74568	627.18872	-665.51875	819.16736	519.16936	-669.65679	809.76121	504.38157	-550.66803	834.32720	372.69603	-339.28501	788.33384	329.84811	-268.49652	810.16599	254.31769	-322.40924	740.23863	139.75301	-266.71315	775.15207	124.21520	-345.10412	845.41155	394.09398	-626.91500	790.00343	336.99161	-708.72013	817.69130	229.93027	-655.64782	785.56704	122.26877	-627.47612	761.07863	125.94019	-710.12586	689.49431	105.31520	-301.82384	896.81533	73.62881	-315.93851	874.03655	64.05542	-222.73316	703.38013	107.29723	-672.25530	909.02169	78.08609	-661.76521	890.70490	64.37935	-751.81593	782.74330	1494.16678	-659.78186	781.33516	1491.22807	-313.18569	850.25070	1481.74977	-462.58133	724.78371	1528.28222	-491.31495	850.78179	1453.47119	-637.94328	727.61340	1441.08159	-679.96062	845.09200	1459.58099	-337.27194	714.30506	1438.70223	-310.12625	834.48662	1442.67477	-202.66320	807.45346	1385.12440	-176.12962	891.58124	1423.17742	-139.64583	934.93196	1401.64254	-80.96783	937.54694	1320.84155	-100.00585	833.08546	1431.15678	-770.86219	850.49131	1380.30689	-817.59211	925.18344	1422.25636	-805.57295	969.85008	1394.88488	-880.09959	948.69753	1319.76150	-858.19123	1056.88019	1412.93270	-121.00765	1171.73171	1378.60935	-174.94482	1177.97679	1382.33957	-103.82801	1096.56046	1399.02857	-841.50234	1189.30867	1346.82951	-766.67730	1207.30775	1371.59250	-828.86086	800.26209	994.11731	-429.42837	815.08959	979.85460	-556.51151	
109	0.90833	882.51169	1031.40188	-613.20128	890.09458	1024.89223	-376.59528	723.61032	1055.56239	-541.67612	720.92191	1053.53590	-443.40762	808.90121	871.76855	-302.33764	872.35627	738.97271	-304.16125	790.48002	611.58834	-314.60888	807.07169	516.45422	-304.64297	795.09245	503.37921	-429.29170	822.50334	850.36398	-683.67699	874.71426	741.27996	-682.86767	799.77430	627.18998	-665.51528	819.17556	519.16571	-669.66214	809.79303	504.38933	-550.68518	834.34681	372.68779	-339.26163	788.34534	329.82651	-268.52118	810.17982	254.31813	-322.40255	740.23854	139.74614	-266.73916	775.15248	124.21413	-345.10950	845.42982	394.08847	-626.91351	789.99436	336.98688	-708.68343	817.69600	229.92919	-655.62796	785.56247	122.26718	-627.47060	761.07799	125.93719	-710.12466	689.48688	105.32501	-301.82817	896.81474	73.62882	-315.93862	874.03662	64.05039	-222.74165	703.38028	107.29953	-672.23891	909.02262	78.08806	-661.76266	890.70314	64.38336	-751.81485	782.77918	1494.15752	-659.81755	781.38944	1491.22789	-313.20280	850.28929	1481.74708	-462.55945	724.82364	1528.29026	-491.32414	850.80514	1453.45180	-637.95820	727.64510	1441.08154	-679.97441	845.13803	1459.57645	-337.28155	714.34736	1438.68284	-310.16453	834.55950	1442.68402	-202.66434	807.51055	1385.14911	-176.14485	891.63834	1423.18649	-139.66254	934.97576	1401.66651	-80.96125	937.58343	1320.86478	-99.99904	833.09875	1431.13605	-770.86902	850.49547	1380.28013	-817.59681	925.19075	1422.23149	-805.57979	969.83463	1394.85547	-880.11862	948.70007	1319.72904	-858.20281	1056.93804	1412.92754	-121.05293	1171.75402	1378.61092	-175.00707	1178.03614	1382.30606	-103.88725	1096.55697	1398.99062	-841.49077	1189.33927	1346.78008	-766.68809	1207.31644	1371.54022	-828.85156	800.29915	994.12301	-429.42039	815.16261	979.85737	-556.49814	
110	0.91667	882.56747	1031.40453	-613.18170	890.15121	1024.89987	-376.58243	723.67051	1055.56714	-541.67306	720.97931	1053.52568	-443.41625	808.99571	871.76566	-302.35204	872.43331	739.03491	-304.10731	790.52127	611.56226	-314.64046	807.07513	516.38336	-304.76963	795.14324	503.38661	-429.28874	822.57935	850.36195	-683.66303	874.77295	741.26968	-682.84703	799.79712	627.18826	-665.50310	819.17731	519.16201	-669.65863	809.78992	504.38969	-550.69266	834.36623	372.67973	-339.24350	788.36284	329.81667	-268.53769	810.20719	254.27941	-322.37121	740.24740	139.74242	-266.74953	775.15228	124.21249	-345.11532	845.44202	394.08156	-626.90055	789.97973	336.98298	-708.64924	817.69724	229.93061	-655.61850	785.55302	122.26401	-627.46068	761.07059	125.93487	-710.11511	689.48015	105.32957	-301.83557	896.81449	73.62661	-315.93960	874.03599	64.03761	-222.74507	703.37945	107.30215	-672.22537	909.02395	78.09075	-661.75333	890.70137	64.38627	-751.81486	782.80829	1494.14391	-659.85357	781.44038	1491.22393	-313.22180	850.32913	1481.74798	-462.54327	724.87152	1528.29180	-491.33139	850.82563	1453.43254	-637.96675	727.67559	1441.08091	-679.98092	845.18737	1459.57908	-337.27570	714.38840	1438.65999	-310.20061	834.63285	1442.69549	-202.67308	807.56638	1385.17280	-176.16580	891.68933	1423.19617	-139.66019	935.01298	1401.69285	-80.95091	937.63687	1320.89080	-99.97455	833.11402	1431.11145	-770.88027	850.49668	1380.25290	-817.61286	925.19249	1422.20586	-805.59391	969.81798	1394.82705	-880.13950	948.70441	1319.69849	-858.23218	1056.98853	1412.92877	-121.08283	1171.78035	1378.61820	-175.06979	1178.09864	1382.29459	-103.93582	1096.55965	1398.95250	-841.50000	1189.37847	1346.71169	-766.71505	1207.33326	1371.50480	-828.89085	800.35107	994.12664	-429.41252	815.22909	979.85700	-556.48779	
111	0.92500	882.62948	1031.39993	-613.24395	890.21208	1024.90946	-376.56211	723.73500	1055.55707	-541.66000	721.03677	1053.52641	-443.41098	809.09923	871.78268	-302.35974	872.51482	739.09949	-304.05869	790.56408	611.58561	-314.58603	807.07246	516.29796	-304.92379	795.27319	503.39207	-429.29528	822.65056	850.35338	-683.65074	874.82088	741.25473	-682.81773	799.81521	627.18623	-665.48468	819.17545	519.15641	-669.63923	809.76580	504.38665	-550.68763	834.38416	372.67332	-339.23981	788.39023	329.81948	-268.54319	810.24909	254.19495	-322.31888	740.26531	139.74530	-266.73205	775.15291	124.21156	-345.11683	845.44994	394.07629	-626.88501	789.96911	336.98345	-708.63277	817.69773	229.93316	-655.62395	785.54917	122.25944	-627.45497	761.06177	125.93412	-710.09924	689.47903	105.32899	-301.84383	896.81555	73.62368	-315.94283	874.03490	64.02610	-222.74227	703.37823	107.30514	-672.21632	909.02405	78.09243	-661.74068	890.70085	64.38695	-751.81565	782.82505	1494.12598	-659.87572	781.48896	1491.22147	-313.23690	850.37221	1481.75235	-462.54408	724.93251	1528.26818	-491.35382	850.84499	1453.41618	-637.97596	727.70550	1441.07619	-679.99623	845.23529	1459.58495	-337.27651	714.43227	1438.64380	-310.23068	834.70435	1442.70908	-202.68981	807.62118	1385.19049	-176.19284	891.73528	1423.20278	-139.66050	935.05202	1401.71598	-80.94563	937.70040	1320.91607	-99.94764	833.12654	1431.08230	-770.89786	850.49427	1380.22555	-817.63273	925.19092	1422.17911	-805.62081	969.80465	1394.80068	-880.15714	948.70643	1319.67124	-858.26447	1057.03393	1412.94246	-121.08733	1171.81711	1378.62655	-175.13519	1178.16556	1382.30414	-103.96964	1096.56984	1398.91209	-841.59407	1189.40909	1346.63998	-766.77113	1207.35171	1371.47149	-828.97128	800.42645	994.12742	-429.41572	815.28103	979.85394	-556.49389	
